<?xml version="1.0" standalone="no"?>
<!DOCTYPE svg PUBLIC "-//W3C//DTD SVG 1.1//EN" "http://www.w3.org/Graphics/SVG/1.1/DTD/svg11.dtd" >
<svg xmlns="http://www.w3.org/2000/svg">
<metadata></metadata>
<defs>
<font id="lcdmononormal" horiz-adv-x="1048" >
<font-face units-per-em="2048" ascent="1638" descent="-410" />
<missing-glyph horiz-adv-x="500" />
<glyph horiz-adv-x="0" />
<glyph unicode="&#xd;" />
<glyph unicode=" " />
<glyph unicode="!" d="M336 86l98 86l72 -86l-96 -86zM365 289l59 430l98 84l74 -84l-61 -430l-97 -86zM453 920l90 632l96 86l74 -86l-88 -632l-99 -84z" />
<glyph unicode="&#x22;" d="M326 1249l28 199l84 74l66 -74l-27 -199l-86 -73zM545 1249l26 199l86 74l66 -74l-29 -199l-84 -73z" />
<glyph unicode="$" d="M-23 186l15 93l96 86l74 -86l-12 -93l-99 -86zM68 86l98 86h168l86 -100l115 100h170l73 -86l-98 -86h-539zM84 920l74 532l98 86l74 -86l-76 -532l-96 -84zM168 819l98 86h170l72 -86l-96 -86h-170zM274 1552l97 86h538l74 -86l-96 -86h-170l-86 101l-115 -101h-170z M350 186l74 533l98 84l74 -84l-76 -533l-96 -86zM453 920l75 532l97 86l73 -86l-73 -532l-99 -84zM541 819l96 86h170l74 -86l-99 -86h-170zM721 186l76 533l96 84l74 -84l-74 -533l-98 -86zM887 1360l12 92l98 86l74 -86l-14 -92l-96 -86z" />
<glyph unicode="'" d="M426 1241l29 203l96 84l72 -84l-29 -203l-96 -86z" />
<glyph unicode="(" d="M242 186l86 623h82l77 -90l-75 -533l-97 -86zM328 86l98 86h102l74 -86l-98 -86h-103zM332 829l88 623l96 86l74 -86l-74 -532l-102 -91h-82zM535 1552l98 86h100l74 -86l-98 -86h-101z" />
<glyph unicode=")" d="M242 86l98 86h100l74 -86l-98 -86h-101zM446 1552l99 86h102l74 -86l-98 -86h-103zM459 186l73 533l103 90h82l-88 -623l-97 -86zM561 920l76 532l96 86l74 -86l-86 -623h-82z" />
<glyph unicode="*" d="M330 649l12 94l57 66h113l-16 -113l-72 -47h-94zM362 877l15 114h94l61 -47l-16 -115h-115zM516 696l16 115h115l37 -68l-12 -94h-94zM537 829l16 115l72 47h94l-17 -114l-53 -48h-112z" />
<glyph unicode="+" d="M193 819l96 84h147l74 -84l-98 -84h-146zM403 563l23 156l96 86l72 -86l-21 -156l-96 -84zM455 920l20 155l96 84l74 -84l-22 -155l-97 -86zM539 819l98 84h145l74 -84l-96 -84h-148z" />
<glyph unicode="," d="M420 -84l37 256l98 86l74 -86l-13 -84z" />
<glyph unicode="." d="M432 88l12 84l99 86l73 -86l-12 -84l-98 -86z" />
<glyph unicode="/" d="M-39 0l21 141l442 668h88l-27 -195l-407 -614h-117zM537 829l26 195l408 614h116l-20 -141l-442 -668h-88z" />
<glyph unicode="0" d="M-20 186l73 533l99 84l73 -84l-75 -533l-97 -86zM66 86l98 86h538l74 -86l-98 -86h-539zM82 920l76 532l96 86l74 -86l-74 -532l-98 -84zM272 1552l99 86h538l74 -86l-98 -86h-539zM721 186l74 533l98 84l74 -84l-76 -533l-96 -86zM823 920l76 532l96 86l74 -86l-74 -532 l-98 -84z" />
<glyph unicode="1" d="M319 1270l13 84l192 170l-32 -244l-105 -88zM352 78l90 641l97 86l73 -86l-90 -635l-96 -84zM471 920l88 634l96 84l74 -84l-90 -634l-96 -86z" />
<glyph unicode="2" d="M-33 16l99 707l98 86l74 -86l-76 -537zM-20 0l196 172h541l147 -172h-884zM156 1360l12 92l98 86l74 -86l-12 -92l-99 -86zM180 819l99 86h542l72 -86l-96 -86h-543zM285 1552l98 86h539l73 -86l-98 -86h-539zM836 920l73 532l99 86l73 -86l-73 -532l-99 -84z" />
<glyph unicode="3" d="M-8 86l98 86h600l74 -86l-98 -86h-600zM199 1552l98 86h598l74 -86l-97 -86h-600zM215 819l96 86h482l73 -86l-98 -86h-479zM707 186l75 533l97 84l73 -84l-73 -533l-99 -86zM811 920l74 532l98 86l74 -86l-76 -532l-96 -84z" />
<glyph unicode="4" d="M25 920l75 542l97 86l73 -86l-75 -542l-99 -84zM109 819l96 86h543l73 -86l-98 -86h-541zM647 86l90 633l97 84l73 -84l-88 -633l-98 -86zM764 920l90 632l98 86l72 -86l-88 -632l-98 -84z" />
<glyph unicode="5" d="M-27 186l13 93l98 86l72 -86l-13 -93l-96 -86zM59 86l99 86h538l74 -86l-98 -86h-539zM63 829l111 793l150 -174l-74 -528l-103 -91h-84zM162 819l98 86h541l73 -86l-96 -86h-542zM193 1638h882l-194 -172h-541zM717 186l74 533l98 84l74 -84l-76 -533l-96 -86z" />
<glyph unicode="6" d="M23 186l88 623h79l78 -90l-73 -533l-99 -86zM109 86l98 86h538l74 -86l-96 -86h-541zM113 829l88 623l98 86l72 -86l-74 -532l-102 -91h-82zM211 819l96 86h543l74 -86l-99 -86h-540zM315 1552l99 86h538l74 -86l-98 -86h-539zM764 186l74 533l98 84l74 -84l-74 -533 l-98 -86z" />
<glyph unicode="7" d="M14 0l19 141l442 668h88l-26 -184l-408 -625h-115zM170 1552l98 86h695l71 -86l-96 -86h-694zM588 829l24 175l295 442h21l-43 -307l-209 -310h-88z" />
<glyph unicode="8" d="M-20 186l73 533l99 84l73 -84l-75 -533l-97 -86zM66 86l98 86h538l74 -86l-98 -86h-539zM82 920l76 532l96 86l74 -86l-74 -532l-98 -84zM166 819l98 86h541l74 -86l-97 -86h-542zM272 1552l99 86h538l74 -86l-98 -86h-539zM721 186l74 533l98 84l74 -84l-76 -533 l-96 -86zM823 920l76 532l96 86l74 -86l-74 -532l-98 -84z" />
<glyph unicode="9" d="M23 86l98 86h538l74 -86l-98 -86h-539zM39 920l74 532l98 86l74 -86l-74 -532l-98 -84zM125 819l98 86h541l74 -86l-97 -86h-542zM229 1552l97 86h540l74 -86l-98 -86h-539zM678 186l74 533l102 90h82l-88 -623l-98 -86zM780 920l74 532l98 86l74 -86l-88 -623h-80z" />
<glyph unicode=":" d="M397 86l11 84l98 86l74 -86l-13 -84l-96 -86zM469 602l12 84l97 86l73 -86l-10 -84l-98 -86z" />
<glyph unicode=";" d="M385 -84l35 256l98 86l74 -86l-12 -84zM481 602l13 84l96 86l74 -86l-13 -84l-96 -86z" />
<glyph unicode="&#x3c;" d="M328 635l24 174h99l127 -350l-41 -295h-23zM356 829l25 175l317 471h23l-43 -295l-223 -351h-99z" />
<glyph unicode="=" d="M117 86l98 86h541l73 -86l-98 -86h-541zM219 815l96 86h543l74 -86l-98 -86h-541z" />
<glyph unicode="&#x3e;" d="M328 164l43 295l223 350h98l-24 -174l-318 -471h-22zM471 1180l41 295h23l186 -471l-25 -175h-98z" />
<glyph unicode="?" d="M125 1552l98 86h539l69 -79l-102 -93h-530zM188 86l97 86l73 -86l-96 -86zM217 289l59 430l99 84l74 -84l-62 -430l-96 -86zM391 819l111 96h149l82 -96l-98 -86h-170zM668 930l73 522l105 90l78 -90l-76 -532l-98 -84z" />
<glyph unicode="A" d="M-31 86l101 723h82l77 -90l-90 -633l-96 -86zM74 829l86 621l100 88l74 -86l-74 -532l-102 -91h-84zM176 819l96 86h543l74 -86l-98 -86h-541zM281 1552l98 86h539l73 -86l-98 -86h-539zM717 86l90 633l102 90h80l-100 -723l-98 -86zM831 920l76 532l97 86l75 -88 l-86 -621h-84z" />
<glyph unicode="B" d="M-35 16l113 793h80l78 -90l-74 -533zM-20 0l194 172h543l74 -86l-99 -86h-712zM80 829l113 793l147 -170l-76 -532l-102 -91h-82zM180 819l99 86h540l74 -86l-98 -86h-541zM209 1638h713l73 -86l-96 -86h-543zM733 186l76 533l96 84l74 -84l-74 -533l-98 -86zM838 920 l73 532l99 86l73 -86l-75 -532l-99 -84z" />
<glyph unicode="C" d="M-20 186l86 623h81l78 -90l-75 -533l-97 -86zM66 86l98 86h538l74 -86l-98 -86h-539zM70 829l88 623l96 86l74 -86l-74 -532l-102 -91h-82zM272 1552l99 86h538l74 -86l-98 -86h-539zM721 186l12 93l98 86l74 -86l-14 -93l-96 -86zM885 1360l14 92l96 86l74 -86l-12 -92 l-99 -86z" />
<glyph unicode="D" d="M-35 16l113 793h80l78 -90l-74 -533zM-20 0l194 172h543l74 -86l-99 -86h-712zM80 829l113 793l147 -170l-76 -532l-102 -91h-82zM209 1638h713l73 -86l-96 -86h-543zM733 186l76 533l102 90h82l-88 -623l-98 -86zM838 920l73 532l99 86l73 -86l-88 -623h-82z" />
<glyph unicode="E" d="M23 186l88 623h79l78 -90l-73 -533l-99 -86zM109 86l98 86h538l74 -86l-96 -86h-541zM113 829l88 623l98 86l72 -86l-74 -532l-102 -91h-82zM211 819l96 86h420l74 -86l-96 -86h-420zM315 1552l99 86h538l74 -86l-98 -86h-539z" />
<glyph unicode="F" d="M16 86l101 723h82l77 -90l-90 -633l-96 -86zM121 829l86 623l98 86l74 -86l-76 -532l-102 -91h-80zM217 819l98 86h420l74 -86l-98 -86h-420zM324 1552l96 86h538l74 -86l-96 -86h-539z" />
<glyph unicode="G" d="M18 186l88 623h80l78 -90l-74 -533l-98 -86zM106 86l97 86h538l74 -86l-96 -86h-541zM109 829l88 623l98 86l74 -86l-76 -532l-103 -91h-81zM311 1552l99 86h538l74 -86l-98 -86h-539zM578 819l98 86h340l-195 -172h-170zM760 186l74 533l196 170l-98 -703l-98 -86z" />
<glyph unicode="H" d="M-35 86l101 723h81l78 -90l-88 -633l-98 -86zM70 829l102 723l96 86l74 -86l-88 -632l-102 -91h-82zM166 819l98 86h541l74 -86l-97 -86h-542zM707 86l88 633l102 90h82l-102 -723l-97 -86zM823 920l88 632l99 86l73 -86l-100 -723h-82z" />
<glyph unicode="I" d="M336 86l88 633l98 84l74 -84l-90 -633l-96 -86zM453 920l90 632l96 86l74 -86l-88 -632l-99 -84z" />
<glyph unicode="J" d="M-29 186l13 93l98 86l74 -86l-15 -93l-96 -86zM57 86l99 86h538l74 -86l-98 -86h-539zM715 186l73 533l103 90h82l-88 -623l-97 -86zM817 920l90 632l97 86l73 -86l-100 -723h-82z" />
<glyph unicode="K" d="M-37 86l103 723h81l76 -90l-88 -633l-98 -86zM68 829l102 723l98 86l74 -86l-90 -632l-102 -91h-82zM166 819l98 86h168l74 -86l-96 -86h-170zM446 739l78 70h86l267 -657l-23 -152h-104zM469 899l510 739h106l-22 -151l-451 -658h-84z" />
<glyph unicode="L" d="M125 186l88 623h82l76 -90l-74 -533l-98 -86zM213 86l98 86h539l74 -86l-99 -86h-538zM217 829l100 723l99 86l73 -86l-90 -632l-102 -91h-80z" />
<glyph unicode="M" d="M-35 86l101 723h81l78 -90l-88 -633l-98 -86zM70 829l102 723l96 86l74 -86l-88 -632l-102 -91h-82zM305 1149l43 307h21l170 -442l-25 -185h-78zM535 829l26 185l295 442h21l-43 -307l-220 -320h-79zM707 86l88 633l102 90h82l-102 -723l-97 -86zM823 920l88 632l99 86 l73 -86l-100 -723h-82z" />
<glyph unicode="N" d="M-35 86l101 723h81l78 -90l-88 -633l-98 -86zM70 829l102 723l96 86l74 -86l-88 -632l-102 -91h-82zM332 1341l24 166h78l387 -448l-18 -135h-111zM707 86l88 633l102 90h82l-102 -723l-97 -86zM823 920l88 632l99 86l73 -86l-100 -723h-82z" />
<glyph unicode="O" d="M-20 186l86 623h81l78 -90l-75 -533l-97 -86zM66 86l98 86h538l74 -86l-98 -86h-539zM70 829l88 623l96 86l74 -86l-74 -532l-102 -91h-82zM272 1552l99 86h538l74 -86l-98 -86h-539zM721 186l74 533l102 90h82l-88 -623l-96 -86zM823 920l76 532l96 86l74 -86l-86 -623 h-82z" />
<glyph unicode="P" d="M-31 86l103 723h80l77 -90l-88 -633l-98 -86zM76 829l112 793l148 -170l-76 -532l-102 -91h-82zM176 819l98 86h541l74 -86l-98 -86h-541zM205 1638h713l73 -86l-96 -86h-543zM834 920l73 532l99 86l73 -86l-75 -532l-97 -84z" />
<glyph unicode="Q" d="M-20 186l86 623h81l78 -90l-75 -533l-97 -86zM66 86l98 86h538l74 -86l-98 -86h-539zM70 829l88 623l96 86l74 -86l-74 -532l-102 -91h-82zM272 1552l99 86h538l74 -86l-98 -86h-539zM559 485l35 246h31l112 -244l-41 -292zM721 186l74 533l102 90h82l-88 -623l-96 -86z M823 920l76 532l96 86l74 -86l-86 -623h-82z" />
<glyph unicode="R" d="M-31 86l103 723h80l77 -90l-88 -633l-98 -86zM76 829l112 793l148 -170l-76 -532l-102 -91h-82zM176 819l98 86h541l74 -86l-98 -86h-541zM205 1638h713l73 -86l-96 -86h-543zM240 614l14 97h139l494 -621l-13 -90h-145zM834 920l73 532l99 86l73 -86l-75 -532l-97 -84z " />
<glyph unicode="S" d="M-23 186l15 93l96 86l74 -86l-12 -93l-99 -86zM66 86l96 86h540l72 -86l-96 -86h-539zM84 920l74 532l98 86l74 -86l-76 -532l-96 -84zM168 819l98 86h541l74 -86l-99 -86h-540zM274 1552l97 86h538l74 -86l-96 -86h-541zM721 186l76 533l96 84l74 -84l-74 -533l-98 -86z M887 1360l12 92l98 86l74 -86l-14 -92l-96 -86z" />
<glyph unicode="T" d="M88 1552l98 86h701l74 -86l-99 -86h-250l-86 101l-114 -101h-250zM231 86l88 633l99 84l74 -84l-89 -633l-98 -86zM348 920l76 532l96 86l74 -86l-74 -532l-98 -84z" />
<glyph unicode="U" d="M-29 186l88 623h82l76 -90l-74 -533l-98 -86zM59 86l97 86h540l74 -86l-98 -86h-539zM63 829l101 723l98 86l74 -86l-90 -632l-103 -91h-80zM713 186l75 533l103 90h82l-88 -623l-99 -86zM817 920l88 632l99 86l73 -86l-102 -723h-82z" />
<glyph unicode="V" d="M8 707l15 102h145l217 -596l-31 -213h-78zM27 829l102 723l98 86l74 -86l-92 -653l-49 -70h-133zM377 0l31 213l383 596h145l-14 -102l-467 -707h-78zM778 899l92 653l97 86l73 -86l-100 -723h-133z" />
<glyph unicode="W" d="M-35 86l101 723h81l78 -90l-88 -633l-98 -86zM70 829l102 723l96 86l74 -86l-88 -632l-102 -91h-82zM170 182l43 307l219 320h78l-25 -184l-295 -443h-20zM506 625l26 184h78l131 -320l-43 -307h-20zM707 86l88 633l102 90h82l-102 -723l-97 -86zM823 920l88 632l99 86 l73 -86l-100 -723h-82z" />
<glyph unicode="X" d="M-39 0l23 152l430 657h98l-27 -184l-407 -625h-117zM170 1487l23 151h114l234 -624l-27 -185h-98zM508 625l27 184h98l246 -657l-23 -152h-115zM537 829l26 185l408 624h116l-22 -151l-430 -658h-98z" />
<glyph unicode="Y" d="M57 1518l19 120h135l221 -634l-24 -175h-109zM229 86l88 633l99 84l73 -84l-90 -633l-96 -86zM430 829l25 175l399 634h137l-18 -120l-434 -689h-109z" />
<glyph unicode="Z" d="M45 86l96 86h564l73 -86l-98 -86h-561zM141 193l39 278l244 338h88l-27 -184l-303 -432h-41zM274 1552l97 86h559l74 -86l-97 -86h-561zM537 829l26 185l303 432h41l-39 -279l-243 -338h-88z" />
<glyph unicode="[" d="M176 16l113 793h80l77 -90l-73 -533zM190 0l195 172h170l94 -111l-8 -61h-451zM291 829l112 793l148 -170l-76 -532l-102 -91h-82zM420 1638h452l-10 -61l-125 -111h-170z" />
<glyph unicode="\" d="M172 1497l21 141h114l236 -614l-29 -195h-88zM506 614l29 195h88l254 -668l-21 -141h-115z" />
<glyph unicode="]" d="M176 0l10 61l125 111h170l148 -172h-453zM399 1577l9 61h450l-194 -172h-170zM498 186l75 533l103 90h82l-113 -793zM602 920l74 532l196 170l-112 -793h-80z" />
<glyph unicode="_" d="M168 86l98 86h541l74 -86l-99 -86h-540z" />
<glyph unicode="a" d="M-31 86l101 723h82l77 -90l-90 -633l-96 -86zM74 829l86 621l100 88l74 -86l-74 -532l-102 -91h-84zM176 819l96 86h543l74 -86l-98 -86h-541zM281 1552l98 86h539l73 -86l-98 -86h-539zM717 86l90 633l102 90h80l-100 -723l-98 -86zM831 920l76 532l97 86l75 -88 l-86 -621h-84z" />
<glyph unicode="b" d="M-35 16l113 793h80l78 -90l-74 -533zM-20 0l194 172h543l74 -86l-99 -86h-712zM80 829l113 793l147 -170l-76 -532l-102 -91h-82zM180 819l99 86h540l74 -86l-98 -86h-541zM209 1638h713l73 -86l-96 -86h-543zM733 186l76 533l96 84l74 -84l-74 -533l-98 -86zM838 920 l73 532l99 86l73 -86l-75 -532l-99 -84z" />
<glyph unicode="c" d="M-20 186l86 623h81l78 -90l-75 -533l-97 -86zM66 86l98 86h538l74 -86l-98 -86h-539zM70 829l88 623l96 86l74 -86l-74 -532l-102 -91h-82zM272 1552l99 86h538l74 -86l-98 -86h-539zM721 186l12 93l98 86l74 -86l-14 -93l-96 -86zM885 1360l14 92l96 86l74 -86l-12 -92 l-99 -86z" />
<glyph unicode="d" d="M-35 16l113 793h80l78 -90l-74 -533zM-20 0l194 172h543l74 -86l-99 -86h-712zM80 829l113 793l147 -170l-76 -532l-102 -91h-82zM209 1638h713l73 -86l-96 -86h-543zM733 186l76 533l102 90h82l-88 -623l-98 -86zM838 920l73 532l99 86l73 -86l-88 -623h-82z" />
<glyph unicode="e" d="M23 186l88 623h79l78 -90l-73 -533l-99 -86zM109 86l98 86h538l74 -86l-96 -86h-541zM113 829l88 623l98 86l72 -86l-74 -532l-102 -91h-82zM211 819l96 86h420l74 -86l-96 -86h-420zM315 1552l99 86h538l74 -86l-98 -86h-539z" />
<glyph unicode="f" d="M16 86l101 723h82l77 -90l-90 -633l-96 -86zM121 829l86 623l98 86l74 -86l-76 -532l-102 -91h-80zM217 819l98 86h420l74 -86l-98 -86h-420zM324 1552l96 86h538l74 -86l-96 -86h-539z" />
<glyph unicode="g" d="M18 186l88 623h80l78 -90l-74 -533l-98 -86zM106 86l97 86h538l74 -86l-96 -86h-541zM109 829l88 623l98 86l74 -86l-76 -532l-103 -91h-81zM311 1552l99 86h538l74 -86l-98 -86h-539zM578 819l98 86h340l-195 -172h-170zM760 186l74 533l196 170l-98 -703l-98 -86z" />
<glyph unicode="h" d="M-35 86l101 723h81l78 -90l-88 -633l-98 -86zM70 829l102 723l96 86l74 -86l-88 -632l-102 -91h-82zM166 819l98 86h541l74 -86l-97 -86h-542zM707 86l88 633l102 90h82l-102 -723l-97 -86zM823 920l88 632l99 86l73 -86l-100 -723h-82z" />
<glyph unicode="i" d="M336 86l88 633l98 84l74 -84l-90 -633l-96 -86zM453 920l90 632l96 86l74 -86l-88 -632l-99 -84z" />
<glyph unicode="j" d="M-29 186l13 93l98 86l74 -86l-15 -93l-96 -86zM57 86l99 86h538l74 -86l-98 -86h-539zM715 186l73 533l103 90h82l-88 -623l-97 -86zM817 920l90 632l97 86l73 -86l-100 -723h-82z" />
<glyph unicode="k" d="M-37 86l103 723h81l76 -90l-88 -633l-98 -86zM68 829l102 723l98 86l74 -86l-90 -632l-102 -91h-82zM166 819l98 86h168l74 -86l-96 -86h-170zM446 739l78 70h86l267 -657l-23 -152h-104zM469 899l510 739h106l-22 -151l-451 -658h-84z" />
<glyph unicode="l" d="M125 186l88 623h82l76 -90l-74 -533l-98 -86zM213 86l98 86h539l74 -86l-99 -86h-538zM217 829l100 723l99 86l73 -86l-90 -632l-102 -91h-80z" />
<glyph unicode="m" d="M-35 86l101 723h81l78 -90l-88 -633l-98 -86zM70 829l102 723l96 86l74 -86l-88 -632l-102 -91h-82zM305 1149l43 307h21l170 -442l-25 -185h-78zM535 829l26 185l295 442h21l-43 -307l-220 -320h-79zM707 86l88 633l102 90h82l-102 -723l-97 -86zM823 920l88 632l99 86 l73 -86l-100 -723h-82z" />
<glyph unicode="n" d="M-35 86l101 723h81l78 -90l-88 -633l-98 -86zM70 829l102 723l96 86l74 -86l-88 -632l-102 -91h-82zM332 1341l24 166h78l387 -448l-18 -135h-111zM707 86l88 633l102 90h82l-102 -723l-97 -86zM823 920l88 632l99 86l73 -86l-100 -723h-82z" />
<glyph unicode="o" d="M-20 186l86 623h81l78 -90l-75 -533l-97 -86zM66 86l98 86h538l74 -86l-98 -86h-539zM70 829l88 623l96 86l74 -86l-74 -532l-102 -91h-82zM272 1552l99 86h538l74 -86l-98 -86h-539zM721 186l74 533l102 90h82l-88 -623l-96 -86zM823 920l76 532l96 86l74 -86l-86 -623 h-82z" />
<glyph unicode="p" d="M-31 86l103 723h80l77 -90l-88 -633l-98 -86zM76 829l112 793l148 -170l-76 -532l-102 -91h-82zM176 819l98 86h541l74 -86l-98 -86h-541zM205 1638h713l73 -86l-96 -86h-543zM834 920l73 532l99 86l73 -86l-75 -532l-97 -84z" />
<glyph unicode="q" d="M-20 186l86 623h81l78 -90l-75 -533l-97 -86zM66 86l98 86h538l74 -86l-98 -86h-539zM70 829l88 623l96 86l74 -86l-74 -532l-102 -91h-82zM272 1552l99 86h538l74 -86l-98 -86h-539zM559 485l35 246h31l112 -244l-41 -292zM721 186l74 533l102 90h82l-88 -623l-96 -86z M823 920l76 532l96 86l74 -86l-86 -623h-82z" />
<glyph unicode="r" d="M-31 86l103 723h80l77 -90l-88 -633l-98 -86zM76 829l112 793l148 -170l-76 -532l-102 -91h-82zM176 819l98 86h541l74 -86l-98 -86h-541zM205 1638h713l73 -86l-96 -86h-543zM240 614l14 97h139l494 -621l-13 -90h-145zM834 920l73 532l99 86l73 -86l-75 -532l-97 -84z " />
<glyph unicode="s" d="M-23 186l15 93l96 86l74 -86l-12 -93l-99 -86zM66 86l96 86h540l72 -86l-96 -86h-539zM84 920l74 532l98 86l74 -86l-76 -532l-96 -84zM168 819l98 86h541l74 -86l-99 -86h-540zM274 1552l97 86h538l74 -86l-96 -86h-541zM721 186l76 533l96 84l74 -84l-74 -533l-98 -86z M887 1360l12 92l98 86l74 -86l-14 -92l-96 -86z" />
<glyph unicode="t" d="M88 1552l98 86h701l74 -86l-99 -86h-250l-86 101l-114 -101h-250zM231 86l88 633l99 84l74 -84l-89 -633l-98 -86zM348 920l76 532l96 86l74 -86l-74 -532l-98 -84z" />
<glyph unicode="u" d="M-29 186l88 623h82l76 -90l-74 -533l-98 -86zM59 86l97 86h540l74 -86l-98 -86h-539zM63 829l101 723l98 86l74 -86l-90 -632l-103 -91h-80zM713 186l75 533l103 90h82l-88 -623l-99 -86zM817 920l88 632l99 86l73 -86l-102 -723h-82z" />
<glyph unicode="v" d="M8 707l15 102h145l217 -596l-31 -213h-78zM27 829l102 723l98 86l74 -86l-92 -653l-49 -70h-133zM377 0l31 213l383 596h145l-14 -102l-467 -707h-78zM778 899l92 653l97 86l73 -86l-100 -723h-133z" />
<glyph unicode="w" d="M-35 86l101 723h81l78 -90l-88 -633l-98 -86zM70 829l102 723l96 86l74 -86l-88 -632l-102 -91h-82zM170 182l43 307l219 320h78l-25 -184l-295 -443h-20zM506 625l26 184h78l131 -320l-43 -307h-20zM707 86l88 633l102 90h82l-102 -723l-97 -86zM823 920l88 632l99 86 l73 -86l-100 -723h-82z" />
<glyph unicode="x" d="M-39 0l23 152l430 657h98l-27 -184l-407 -625h-117zM170 1487l23 151h114l234 -624l-27 -185h-98zM508 625l27 184h98l246 -657l-23 -152h-115zM537 829l26 185l408 624h116l-22 -151l-430 -658h-98z" />
<glyph unicode="y" d="M57 1518l19 120h135l221 -634l-24 -175h-109zM229 86l88 633l99 84l73 -84l-90 -633l-96 -86zM430 829l25 175l399 634h137l-18 -120l-434 -689h-109z" />
<glyph unicode="z" d="M45 86l96 86h564l73 -86l-98 -86h-561zM141 193l39 278l244 338h88l-27 -184l-303 -432h-41zM274 1552l97 86h559l74 -86l-97 -86h-561zM537 829l26 185l303 432h41l-39 -279l-243 -338h-88z" />
<glyph unicode="|" d="M324 0l100 719l98 84l74 -84l-100 -719l-99 -86zM453 920l100 718l98 86l74 -86l-100 -718l-99 -84z" />
<glyph unicode="&#xa0;" />
<glyph unicode="&#x2000;" horiz-adv-x="862" />
<glyph unicode="&#x2001;" horiz-adv-x="1724" />
<glyph unicode="&#x2002;" horiz-adv-x="862" />
<glyph unicode="&#x2003;" horiz-adv-x="1724" />
<glyph unicode="&#x2004;" horiz-adv-x="574" />
<glyph unicode="&#x2005;" horiz-adv-x="431" />
<glyph unicode="&#x2006;" horiz-adv-x="287" />
<glyph unicode="&#x2007;" horiz-adv-x="287" />
<glyph unicode="&#x2008;" horiz-adv-x="215" />
<glyph unicode="&#x2009;" horiz-adv-x="344" />
<glyph unicode="&#x200a;" horiz-adv-x="95" />
<glyph unicode="&#x202f;" horiz-adv-x="344" />
<glyph unicode="&#x205f;" horiz-adv-x="431" />
<glyph unicode="&#x25fc;" horiz-adv-x="1638" d="M0 0v1638h1638v-1638h-1638z" />
</font>
</defs>
</svg>
