<?xml version="1.0" standalone="no"?>
<!DOCTYPE svg PUBLIC "-//W3C//DTD SVG 1.1//EN" "http://www.w3.org/Graphics/SVG/1.1/DTD/svg11.dtd" >
<svg xmlns="http://www.w3.org/2000/svg">
<metadata>Generated by IcoMoon</metadata>
<defs>
<font id="icomoon" horiz-adv-x="1024">
<font-face units-per-em="1024" ascent="960" descent="-64" />
<missing-glyph horiz-adv-x="1024" />
<glyph unicode="&#x20;" d="" horiz-adv-x="512" />
<glyph unicode="&#xe600;" d="M658.098 587.892c0.29 2.184 0.542 4.368 0.796 6.55-0.256-2.182-0.508-4.366-0.796-6.55zM638.482 514.154c0.506 0.224 1.014 0.676 1.554 1.354-0.54-0.676-1.048-1.090-1.554-1.354zM640.978 516.826c1.518 2.446 3.148 6.362 4.778 11.368-1.63-5.006-3.26-8.922-4.778-11.368zM656.288 575.020c0.396 2.484 0.76 5.042 1.086 7.602-0.328-2.558-0.69-5.118-1.086-7.602zM650.788 546.526c-0.652-2.748-1.302-5.308-1.918-7.792 0.614 2.484 1.264 5.044 1.918 7.792zM636.852 514.266c0.29-0.152 0.544-0.488 0.834-0.488-0.29 0-0.546 0.338-0.834 0.488zM648.252 536.548c-0.652-2.408-1.338-4.666-2.028-6.774 0.69 2.108 1.342 4.366 2.028 6.774zM385.922 514.832c0.146 0.226 0.29 0.716 0.434 1.016-0.144-0.302-0.288-0.792-0.434-1.016zM384.186 513.778c0.36 0 0.614 0.336 0.94 0.526-0.326-0.188-0.58-0.526-0.94-0.526zM379.372 518.558c1.266-2.182 2.5-3.652 3.584-4.292-1.086 0.64-2.318 2.108-3.584 4.292zM378.43 520.25c-1.702 3.276-3.438 7.566-5.212 12.76 1.774-5.194 3.512-9.484 5.212-12.76zM653.536 559.324c-0.722-3.652-1.482-7.19-2.242-10.578 0.758 3.388 1.518 6.926 2.242 10.578zM635.624 516.072c0.18-0.376 0.324-0.978 0.542-1.242-0.218 0.264-0.364 0.868-0.542 1.242zM387.444 518.52c-0.038-0.114-0.074-0.34-0.11-0.416 0.038 0.076 0.074 0.304 0.11 0.416zM634.898 518.030c-0.11 0.414-0.182 1.092-0.326 1.584 0.144-0.492 0.218-1.17 0.326-1.584zM633.92 523.488c-0.034 0.604-0.072 1.468-0.144 2.146 0.072-0.678 0.11-1.506 0.144-2.146zM655.634 571.030c-0.65-3.916-1.338-7.754-2.026-11.442 0.688 3.686 1.376 7.526 2.026 11.442zM458.238 666.074c1.050-0.3 2.1-0.566 3.186-0.94-1.088 0.374-2.136 0.64-3.186 0.94zM450.094 667.428c-0.544 0.040-1.052 0.264-1.594 0.264h-0.036c-0.108 0-0.252-0.076-0.398-0.076 0.686 0.002 1.34-0.148 2.028-0.188zM367.862 551.268c1.702-6.74 3.51-12.912 5.356-18.256-1.808 5.346-3.654 11.518-5.356 18.256zM479.736 657.906c1.702-0.714 3.546-1.316 5.358-1.958-1.812 0.64-3.656 1.244-5.358 1.958zM189.934 198.68c28.050 24.958 106.302 61.508 150.494 81.042l10.822-8.922c46.398-38.468 100.834-58.794 157.404-58.794s111.004 20.326 157.408 58.794l10.818 8.922c44.196-19.536 122.444-56.048 150.53-81.042 33.548-29.96 42.854-110.212 44.954-134.68 69.602 86.010 111.692 196.902 111.692 318.108 0 273.050-212.852 494.42-475.4 494.42-262.546 0-475.4-221.37-475.4-494.42 0-121.206 42.094-232.098 111.694-318.108 2.096 24.466 11.398 104.718 44.984 134.68zM354.434 601.896l3.982-0.15c-3.222 27.328-3.076 53.3 4.524 64.554 23.562 34.668 32.792 45.508 51.866 78.408 32.5 56.312 184.986 60.678 184.986 60.678s-42.82-47.504-7.24-60.754c35.652-13.174 37.678-43.738 61.276-78.37 7.492-11.254 8.252-37.152 5.79-64.518l3.294 0.15c10.86-2.784 12.994-32.484 4.886-66.324-7.708-31.92-21.79-55.784-32.39-56.048-6.516-37.566-17.266-72.308-35.688-91.434-45.536-47.35 45.566-94.704 45.566-94.704s1.954-0.828 5.138-2.184c-40.39-33.426-89.216-53.074-141.77-53.074s-101.376 19.648-141.768 53.074c3.222 1.356 5.174 2.184 5.174 2.184s91.098 47.354 45.568 94.704c-18.458 19.126-29.208 53.868-35.758 91.434-10.57 0.264-24.648 24.128-32.356 56.048-8.108 33.842-5.974 63.542 4.92 66.326zM363.122 572.348c1.448-7.266 3.004-14.268 4.668-20.818-1.664 6.552-3.222 13.552-4.668 20.818zM359.286 595.196c1.012-7.114 2.17-14.19 3.51-21.078-1.34 6.886-2.5 14.002-3.51 21.078zM525.846 652.788c2.39 0.526 4.78 0.978 6.988 1.654-2.208-0.676-4.598-1.128-6.988-1.654zM511.044 651.054c4.050 0 7.852 0.34 11.468 0.944-3.616-0.604-7.416-0.944-11.468-0.944zM511.044 651.054c-4.054 0-7.854 0.34-11.472 0.98 3.618-0.64 7.42-0.98 11.472-0.98zM563.78 666.036c-1.014-0.302-2.064-0.602-3.076-0.902 1.048 0.338 2.024 0.6 3.076 0.902zM471.34 661.37c-0.144 0.076-0.362 0.15-0.508 0.226-0.108 0-0.252 0.076-0.362 0.114 0.29-0.116 0.544-0.228 0.87-0.34zM489.184 654.52c2.098-0.68 4.306-1.092 6.514-1.582-2.208 0.488-4.452 0.902-6.514 1.582zM540.396 657.154c0.58 0.226 1.196 0.376 1.738 0.602-0.542-0.226-1.158-0.414-1.738-0.602zM574.164 667.618c-0.142 0-0.288 0.076-0.398 0.076h-0.038c0 0-0.036 0-0.068 0-0.544 0-1.014-0.226-1.558-0.264 0.69 0.038 1.376 0.188 2.062 0.188z" />
<glyph unicode="&#xe601;" d="M735.876 471.41c36.878 43.084 59.152 98.616 59.152 159.2 0 136.392-113.032 247.39-252.068 247.39h-315.21v-866h378.226c138.91 0 252.132 110.936 252.132 247.332 0.002 89.894-49.178 168.74-122.232 212.078v0zM416.866 754.304h99.962c55.164 0 99.898-55.466 99.898-123.696 0-68.354-44.734-123.822-99.898-123.822h-99.962v247.518zM573.472 135.704h-156.608v247.386h156.608c57.542 0 104.278-55.53 104.278-123.758 0-68.164-46.734-123.628-104.278-123.628v0z" />
<glyph unicode="&#xe602;" d="M678.21 191.424h-253.46c-13.082 0-23.702-10.846-23.702-23.958 0-13.080 10.556-23.83 23.702-23.896h253.46c13.144 0 23.83 10.816 23.7 23.992 0 13.114-10.618 23.862-23.7 23.862v0zM672.772 122.812h-242.582c-13.080 0-23.766-10.522-23.766-23.602 0-13.18 10.686-23.636 23.83-23.636h242.516c13.144 0 23.768 10.458 23.768 23.636 0.126 13.082-10.622 23.602-23.766 23.602v0zM641.168 54.27h-179.312c-13.144 0-23.764-10.588-23.636-23.766 0-13.080 10.75-23.474 23.83-23.474h178.86c13.146 0 23.832 10.394 23.894 23.474 0.066 13.178-10.554 23.766-23.636 23.766v0zM555.688 886.3h-8.416c-139.098 0-251.906-123.524-251.906-275.574 0-70.812 19.168-116.044 64.822-183.782 27.392-40.472 65.212-71.006 71.168-212.692h240.25c5.958 141.686 43.776 172.026 71.168 212.596 45.718 67.638 64.82 113.13 64.82 183.94 0 152.086-112.804 275.512-251.906 275.512v0zM644.212 567.404l-85.092-87.034v-203.144c0-4.176-3.56-7.542-7.576-7.836-4.144 0.294-7.706 3.66-7.706 7.836v203.144l-85.092 87.034c-3.042 3.076-2.914 8.158 0.196 11.17 3.108 3.108 8.16 3.012 11.268-0.096l81.334-82.89 81.206 82.89c2.978 3.108 8.16 3.206 11.268 0.096 3.11-3.106 3.304-8.094 0.194-11.17v0z" />
<glyph unicode="&#xe603;" d="M471.61 561.406h210.914v-153.674h-210.914v153.674zM438.8 379.308v121.486h-80.626v-208.944h210.912v83.406h-126.178c-2.266 0.002-4.108 1.81-4.108 4.052zM514.348 859.838c-234.36 0-424.318-188.256-424.318-420.47 0-232.176 189.958-420.394 424.318-420.394s424.318 188.218 424.318 420.394c0 232.214-189.958 420.47-424.318 420.47zM715.294 379.308c0-2.242-1.842-4.050-4.106-4.050h-109.292v-111.85c0-2.242-1.844-4.046-4.108-4.046h-268.282c-2.302 0-4.106 1.804-4.106 4.046v265.81c0 2.244 1.802 4.068 4.106 4.068h109.294v111.848c0 2.244 1.842 4.050 4.106 4.050h268.284c2.264 0 4.106-1.806 4.106-4.050v-265.826z" />
<glyph unicode="&#xe604;" d="M900.194 396.614c0 60.902-13.96 118.388-39.028 169.566l-67.668-39.42c18.508-39.484 28.834-83.566 28.834-130.146 0-57.484-15.588-111.224-43.124-157.214l67.54-39.286c33.962 57.418 53.446 124.626 53.446 196.5v0zM257.094 544.498c49.94 91.058 144.622 153.338 254.044 156.886v78.772c-138.322-3.614-258.072-81.794-321.452-196.37l67.408-39.288zM511.138 13.006v78.706c-98.708 3.418-185.208 54.332-237.94 130.936l-67.666-39.484c66.368-100.124 178.194-166.808 305.606-170.158v0zM768.494 222.646c-52.794-76.604-139.23-127.518-237.742-130.936v-78.706c127.28 3.35 239.108 70.034 305.542 170.156l-67.8 39.486zM141.372 396.614c0-71.874 19.612-139.082 53.576-196.5l67.408 39.286c-27.21 45.99-43.12 99.73-43.12 157.214 0 46.58 10.456 90.664 28.898 130.146l-67.668 39.42c-24.938-51.18-39.094-108.666-39.094-169.566v0zM852.074 583.786c-22.080 39.812-51.042 75.158-85.136 104.524l-44.032-65.5c24.484-22.468 45.46-48.88 61.63-78.312l67.538 39.288zM662.578 752.432c-40.912 16.752-85.202 26.476-131.826 27.724v-78.772c30.196-0.92 59.222-6.57 86.628-15.9l45.198 66.948zM258.262 396.614c0-146.702 117.476-265.746 262.488-265.746 145.206 0 262.746 119.044 262.746 265.746 0 75.816-31.56 144.010-81.954 192.428l-12.988-19.316c-20.522-30.616-49.224-49.602-74.55-49.602-9.806 0-19.222 2.824-27.146 8.212-15.584 10.774-23.182 30.484-20.908 53.936 1.688 18.332 9.48 38.434 21.69 56.894l8.31 12.022c-23.896 7.096-49.094 11.104-75.2 11.104-145.010 0.002-262.488-118.976-262.488-265.678v0zM601.276 542.134c16.754-11.432 46.238 3.81 67.020 34.82l98.254 146.112 10.842-7.358c8.184-5.65 19.224-3.548 24.938 4.73 5.714 8.41 3.636 19.71-4.674 25.36l-15.716 10.776 52.796 78.442c9.156 13.796 5.65 32.784-7.988 42.178-13.83 9.46-32.468 5.914-41.82-8.014l-52.732-78.38-15.716 10.838c-8.312 5.652-19.416 3.548-24.938-4.73-5.844-8.41-3.506-19.71 4.612-25.36l10.846-7.424-98.254-146.044c-21.108-31.076-24.288-64.382-7.47-75.946v0zM716.87 757.228l39.872-27.264-98.448-146.178c-17.924-26.74-40.912-38.104-50.328-31.536-9.156 6.438-7.338 32.324 10.584 58.866l98.32 146.112z" />
<glyph unicode="&#xe605;" d="M342.454 727.49c6.876-6.182 6.876-16.256 0-22.5l-80.056-73.12c-6.876-6.246-17.882-6.246-24.758 0l-132.050 120.57c-24.484-58.904-10.73-127.976 41.128-175.394 70.702-64.522 185.282-64.522 255.846 0 70.702 64.458 70.702 168.994 0 233.484-51.858 47.386-127.648 59.94-192.16 37.534l132.050-120.574zM500.088 436.39l-325.86-297.376-30.812 28.116 325.86 297.41zM267.35 212.824c1.788-1.54 1.788-4.080 0-5.586l-95.46-87.148c-1.65-1.57-4.54-1.57-6.19 0l-43.054 39.322c-1.788 1.6-1.788 4.078 0 5.618l95.46 87.21c1.652 1.506 4.54 1.506 6.19 0l43.054-39.416zM628.424 482.114l3.99-3.704 248.006 226.328c32.324 29.53 32.324 77.326 0 106.792-32.188 29.5-84.732 29.5-116.92 0l-248.006-226.326 3.988-3.704c5.778-5.21 5.778-13.652 0-18.924-5.638-5.178-14.992-5.178-20.632 0l-4.126 3.766-70.978-64.866 117.056-106.792 70.978 64.834-4.126 3.704c-5.64 5.208-5.64 13.682 0 18.892 5.778 5.24 14.992 5.24 20.77 0zM590.874 585.016c-3.028-2.73-7.842-2.73-10.73 0-3.026 2.666-3.026 7.124 0 9.822l218.57 199.464c2.888 2.7 7.704 2.7 10.73 0 2.888-2.73 2.888-7.092 0-9.822l-218.57-199.464zM643.004 537.41c-3.026-2.7-7.84-2.7-10.728 0-3.026 2.73-3.026 7.060 0 9.822l218.57 199.434c2.888 2.76 7.704 2.76 10.728 0 2.888-2.668 2.888-7.062 0-9.792l-218.57-199.464zM436.54 450.418l12.93 11.832-42.916 39.228 88.172 80.558 12.654-11.58c1.238-1.068 2.338-1.068 3.576 0 0.55 0.534 0.688 1.162 0.688 1.6 0 0.408-0.136 1.036-0.688 1.6l-12.792 11.58 0.138 0.062-92.574 84.576c-13.618 12.396-35.764 12.396-49.38 0l-55.434-50.652c-13.618-12.426-13.618-32.606 0-45.002l135.626-123.802zM921.96 198.67l-302.202 275.63c-1.1 1.068-2.2 1.068-3.438 0-0.962-0.91-0.962-2.322 0-3.2l12.654-11.58-88.308-80.588-43.052 39.448-13.068-11.832 332.602-303.496c13.618-12.458 35.762-12.458 49.38 0l55.434 50.65c13.616 12.424 13.616 32.54-0.002 44.968zM869.14 151.346c-17.056-15.534-44.706-15.534-61.762 0-17.056 15.536-17.056 40.734 0 56.268 17.056 15.536 44.706 15.536 61.762 0 16.918-15.534 16.918-40.702 0-56.268z" />
<glyph unicode="&#xe606;" d="M678.194 789.492h-206.25v-309.396h-137.49v94.522h-257.806v-257.804h257.806v94.522h137.49v-309.324h206.25v-94.592h257.806v257.872h-257.806v-94.592h-137.488v550.028h137.488v-94.522h257.806v257.738h-257.806v-94.452zM145.378 385.576v120.28h120.348v-120.28h-120.348zM867.238 196.462v-120.282h-120.314v120.282h120.314zM867.238 815.25v-120.35h-120.314v120.35h120.314z" />
<glyph unicode="&#xe607;" d="M410.032 856.536l5.666 23.746h342.162l-6.7-23.746c-31.020 0-54.726-8.514-71.008-25.732-16.336-17.026-30.918-52.87-43.234-107.276l-128.158-557.184c-9.274-39.298-13.912-65.732-13.912-78.92 0-15.488 4.74-27.394 14.428-36.164 12.368-10.944 35.918-17.026 70.29-17.858l-5.102-23.684h-347.934l5.618 23.684c34.884 0 60.446 8.32 76.676 24.708 16.182 16.516 30.816 52.614 43.904 108.234l129.134 557.186c7.832 34.306 11.956 60.166 11.956 77.704 0 15.874-4.894 28.292-14.428 37.316-9.74 9.154-32.772 14.912-69.358 17.986v0z" />
<glyph unicode="&#xe608;" d="M85.284 874.78h844.716v-77.654h-844.716v77.654zM85.284 564.548h844.716v-77.72h-844.716v77.72zM85.284 253.992h844.716v-77.458h-844.716v77.458zM85.284 719.664h844.716v-77.72h-844.716v77.72zM85.284 409.174h844.716v-77.462h-844.716v77.462zM85.284 98.942h844.716v-77.72h-844.716v77.72z" />
<glyph unicode="&#xe609;" d="M90.172 878.224h827.554v-78.444h-827.554v78.444zM90.172 564.776h827.554v-78.442h-827.554v78.442zM90.172 251.132h827.554v-78.248h-827.554v78.248zM90.172 721.468h591.138v-78.444h-591.138v78.444zM90.172 407.89h591.138v-78.25h-591.138v78.25zM90.172 94.376h591.138v-78.376h-591.138v78.376z" />
<glyph unicode="&#xe60a;" d="M787.286 365.296c0-156.852-111.594-284.52-248.796-284.52h-88.026c-14.664 0-26.518 13.554-26.518 30.27v10.018c0 16.66 11.854 30.216 26.518 30.216h88.026c103.212 0 187.192 95.982 187.192 214.016s-83.98 213.964-187.194 213.964h-162.438l111.784-127.942c12.044-13.72 12.044-36.096 0-49.872-11.522-13.284-31.898-13.284-43.418 0l-164.532 188.156c-5.808 6.752-9.14 15.572-9.14 24.936 0 9.472 3.332 18.292 9.14 24.936l164.532 188.156c11.52 13.392 31.896 13.392 43.418 0 12.044-13.72 12.044-36.042 0-49.816l-111.784-127.996h162.438c137.204 0 248.798-127.614 248.798-284.522v0z" />
<glyph unicode="&#xe60b;" d="M222.964 642.556c0 0 130.384 78.774 121.21 180.262-7.256 78.774-84 77.71-121.21 39.586-37.094 38.126-114.070 39.188-121.094-39.584-9.232-101.49 121.094-180.264 121.094-180.264v0zM222.964 227.368c-37.094 38.058-114.072 39.254-121.096-39.518-9.23-101.754 121.096-180.264 121.096-180.264s130.384 78.51 121.21 180.264c-7.256 78.772-83.998 77.576-121.21 39.518v0zM434.676 728.902h466.038c17.418 0 31.698 16.338 31.698 36.264 0 20.060-14.28 36.2-31.698 36.2h-466.038c-17.588 0-31.694-16.14-31.694-36.2 0-19.924 14.106-36.264 31.694-36.264v0zM900.714 483.814h-466.038c-17.588 0-31.694-16.206-31.694-36.198 0-19.86 14.106-36.2 31.694-36.2h466.038c17.418 0 31.698 16.14 31.698 36.2 0 19.992-14.28 36.198-31.698 36.198v0zM192.544 319.624c8.476-8.172 19.45-12.686 30.42-12.686 1.452 0 3.192 0 4.586 0.33 12.656 1.328 24.266 8.504 32.276 19.794l148.438 208.89c16.428 23.246 13.408 57.452-6.91 76.316-20.318 19.128-50.504 15.476-66.934-7.906l-117.902-165.848-52.998 50.746c-20.084 19.46-50.040 16.206-66.818-6.774-16.894-22.982-14.222-57.254 5.922-76.648l89.92-86.214zM900.714 166.328h-466.038c-17.588 0-31.694-16.34-31.694-36.266 0-20.056 14.106-36.396 31.694-36.396h466.038c17.418 0 31.698 16.34 31.698 36.396 0 19.926-14.28 36.266-31.698 36.266v0z" />
<glyph unicode="&#xe60c;" d="M512.062 861.798c-234.85 0-425.25-185.728-425.25-414.798 0-229.1 190.398-414.798 425.25-414.798 234.79 0 425.124 185.7 425.124 414.798 0 229.070-190.334 414.798-425.124 414.798zM647.3 336.986c4.13-4.032 4.13-10.596 0-14.63l-7.516-7.36c-4.132-4.032-10.892-4.032-15.024 0l-112.762 110-112.762-110c-4.068-4.032-10.83-4.032-15.026 0l-7.514 7.332c-4.068 4.062-4.068 10.626 0 14.658l112.768 109.992-112.768 110.006c-4.068 4.032-4.068 10.628 0 14.66l7.514 7.33c4.196 4.062 10.958 4.062 15.026 0l112.77-110.008 112.754 109.978c4.13 4.062 10.89 4.062 15.024 0l7.516-7.298c4.13-4.032 4.13-10.628 0-14.66l-112.76-110 112.76-110z" />
<glyph unicode="&#xe60d;" d="M512.928 913.862c-250.818 0-454.116-207.224-454.116-462.834 0-255.568 203.298-462.75 454.116-462.75 250.822 0 454.118 207.182 454.118 462.75-0.002 255.608-203.296 462.834-454.118 462.834zM449.842 206.216h-177.178v183.452h72.080v-110h105.1v-73.452zM452.636 622.424h-107.892v-107.15h-72.080v180.606h179.972v-73.456zM753.15 206.216h-177.18v73.452h105.102v110h72.078v-183.452zM753.15 515.274h-72.078v107.15h-107.934v73.456h180.012v-180.606z" />
<glyph unicode="&#xe60e;" d="M929.316 441.708c0-13.166-10.828-23.896-23.9-23.896h-788.88c-13.070 0-23.896 10.73-23.896 23.896v23.948c0 13.118 10.828 23.896 23.896 23.896h788.88c13.072 0 23.9-10.778 23.9-23.896v-23.948z" />
<glyph unicode="&#xe60f;" d="M932.714 255.336v229.786h-387.69v174.056h78.956v215.338h-215.29v-215.338h78.952v-174.056h-387.642v-57.484h-0.050v-172.302h-78.952v-215.336h215.338v215.336h-78.952v172.302h330.256v-172.302h-78.952v-215.336h215.29v215.336h-78.956v172.302h330.258v-172.302h-78.952v-215.336h215.338v215.336h-78.952zM466.072 817.084h100.52v-100.522h-100.52v100.522zM178.904 97.382h-100.496v100.52h100.496v-100.52zM566.592 97.382h-100.52v100.52h100.52v-100.52zM954.232 97.382h-100.472v100.52h100.472v-100.52z" />
<glyph unicode="&#xe610;" d="M548.15 8.276h-401.242c-7.088 0-12.85 2.524-17.416 7.568-4.534 5.042-6.852 10.63-6.852 16.698v667.73c0 0.99 1.056 2.488 3.068 4.5l180.19 177.156v4.566h411.81c7.090 0 12.952-2.556 17.454-7.598 4.566-5.044 6.812-10.6 6.812-16.632v-268.018h-78.796v213.52h-293.684v-157.492c0-6.068-3.032-9.1-9.066-9.1h-159.026v-554.166h346.748v-78.732zM956.96 200.566c0-8.042-4.498-12.134-13.628-12.134h-166.596v-166.524c0-9.066-3.954-13.632-12.062-13.632h-116.63c-8.040 0-11.996 4.566-11.996 13.632v166.524h-168.124c-8.042 0-12.1 4.092-12.1 12.134v116.558c0 8.182 4.056 12.134 12.1 12.134h168.124v166.556c0 9.1 3.958 13.632 11.996 13.632h116.63c8.11 0 12.062-4.532 12.062-13.632v-166.556h166.596c9.13 0 13.628-3.954 13.628-12.134v-116.558z" />
<glyph unicode="&#xe611;" d="M984.874 351.914l-163.714-312.598c-8.046-15.498-30.78-32.034-48.42-32.034l-660.912-2.656c-14.026-0.074-27.384 5.388-37.35 15.208-9.89 9.742-15.5 23.174-15.5 37.198l-1.918 513.216c-0.074 29.008 23.398 52.628 52.406 52.776l48.422 0.296 0.146-44.878-32.404-0.148c-6.348 0-12.4-2.584-16.904-7.086-4.428-4.428-6.938-10.482-6.864-16.83l1.92-481.108c0.074-13.286 10.702-23.912 23.914-23.838l33.142 0.146 155.004 316.578c8.784 17.716 25.39 32.036 42.958 32.036l382.57 1.476-0.372 127.252c24.95-2.214 44.804-22.882 44.876-48.42l0.296-78.684 175.452 0.74c20.742-0.15 38.162-20.522 23.252-48.642v0zM189.772 208.642c-1.918 157.368-2.362 629.246-2.362 629.246-0.148 23.768 19.19 43.33 42.958 43.33l345.59 1.328c5.46 0 10.776-2.288 14.54-6.348l112.196-120.978c3.468-3.47 5.24-8.34 5.24-13.36l1.256-314.438-36.242-0.148-1.036 287.276c0 5.018-4.132 9.004-9.15 9.004l-85.474-0.294c-10.040 0-18.232 8.12-18.232 18.010l-0.372 96.030c0 4.944-4.058 8.93-9.004 8.93l-319.014-1.18c-3.912-0.074-6.938-3.174-6.938-7.086l2.29-589.536-27.532-56.172c-0.004 0-8.42 0.59-8.714 16.386v0zM595.292 759.576l53.81 0.148-54.102 58.31 0.292-58.458zM615.224 686.5l-333.926-1.328c-12.4 0-22.292-10.040-22.292-22.292 0.148-12.328 10.112-22.366 22.366-22.292l334 1.182c12.252 0.148 22.29 10.188 22.14 22.588 0.002 12.178-10.036 22.142-22.288 22.142v0zM638.032 534.374c0 12.326-10.114 22.292-22.368 22.216l-333.922-1.254c-12.326-0.074-22.292-10.112-22.218-22.366 0.074-12.326 10.114-22.144 22.366-22.29l333.998 1.402c12.252 0.002 22.218 10.114 22.144 22.292v0zM260.040 402.18c0.074-12.254 10.114-22.22 22.292-22.146h8.044c13.952 39.342 48.938 44.804 48.938 44.804l-57.13-0.222c-12.252 0-22.144-10.040-22.144-22.436v0z" />
<glyph unicode="&#xe612;" d="M691.628 395.216l-3.152-32.41c-1.958 1.29-4.058 2.576-6.16 3.74l-5.808 28.67h-17.008l2.798-12.666c-1.54 0.040-3.080 0.2-4.692 0.2h-416.338c-1.606 0-3.148-0.16-4.686-0.2l25.056 115.15c4.622 32.768 36.258 60.912 67.2 60.912h183.6v19.016h-174.292c-48.090 0-90.088-20.948-98.206-94.364l-23.376-116.718c-2.104-1.084-4.202-2.452-6.232-3.74l-5.39 55.926c0 0-77.554 39.366-96.034 0-18.48-39.278 0-53.432 0-53.432l96.596-5.946c-18.128-13.836-29.678-34.862-29.678-58.542v-106.866c0-26.58 14.698-49.978 36.746-63.368v-71.928c0-24.286 26.11-43.944 58.308-43.944 32.338 0 58.448 19.658 58.448 43.944v59.83h230.29v-59.826c0-24.286 26.11-43.944 58.306-43.944 32.34 0 58.376 19.658 58.376 43.944v66.742c27.51 11.982 46.756 38.072 46.756 68.552v106.866c0 23.68-11.618 44.706-29.68 58.542l96.596 5.946c0 0 2.242 8.482 1.54 30.038l-99.884-0.124zM339.474 214.652h-105.412v57.538h105.412v-57.538zM559.474 214.052h-205.16v21.468h205.162v-21.468zM559.474 250.196h-205.16v21.348h205.162v-21.348zM679.376 214.652h-105.416v57.538h105.416v-57.538zM530.704 882.668v-455.73h396.604v455.73h-396.604zM823.99 639.544c-22.68-24.002-56.208-35.46-95.472-35.46-8.612 0-16.524 0.4-22.542 1.926v-120.938h-65.726v332.544c20.51 3.98 49.208 6.916 89.664 6.916 40.878 0 69.996-8.966 89.736-26.98 19.18-17.046 31.29-45.030 31.29-78.040 0-32.968-9.172-61.47-26.95-79.968v0z" />
<glyph unicode="&#xe613;" d="M932.074 441.656c0-13.254-10.898-24.054-24.052-24.054h-793.994c-13.204 0-24.1 10.8-24.1 24.054v24.054c0 13.252 10.898 24.15 24.1 24.15h793.994c13.154 0 24.052-10.898 24.052-24.15v-24.054zM498.974 32.658c-13.206 0-24.052 10.898-24.052 24.052v793.946c0 13.252 10.848 24.052 24.052 24.052h24.054c13.254 0 24.006-10.8 24.006-24.052v-793.944c0-13.154-10.752-24.052-24.006-24.052h-24.054z" />
<glyph unicode="&#xe614;" d="M618.068 525.538v-161.726h41.746v181.956c0 15.548-10.916 28.254-24.32 28.254h-156.256v-48.484h138.83zM618.068 56.578h-402.708v468.96h222.226v48.484h-239.556c-13.5 0-24.416-12.708-24.416-28.254v-509.418c0-15.604 10.916-28.31 24.416-28.31h437.464c13.404 0 24.32 12.708 24.32 28.31v278.922h-41.746v-258.694zM479.238 525.538h-41.65v-181.956c0-15.66 10.868-28.31 24.272-28.31h156.208v48.54h-138.832v161.726zM899.372 881.31h-437.512c-13.406 0-24.272-12.762-24.272-28.31v-278.978h41.65v258.748h402.804v-468.96h-222.228v-48.54h239.556c13.5 0 24.368 12.65 24.368 28.31v509.42c0 15.548-10.866 28.31-24.366 28.31z" />
<glyph unicode="&#xe615;" d="M522.358 589.206v289.014h-394.358v-870.22h770v581.206h-375.642zM833.802 56.37h-641.604v773.552h265.962v-289.084h375.642v-484.468zM564.286 878.22h-0.564v-251.786h334.278v0.424z" />
<glyph unicode="&#xe616;" d="M857.946 401.222l-254.018-126.432c-10.38-5.158-23.802-8.022-37.92-8.022-14.072 0-27.54 2.864-37.876 8.022l-254.016 126.432-61.418-30.536c-5.040-2.538-5.040-6.588 0-9.126l344.102-171.288c5.082-2.538 13.334-2.538 18.374 0l344.144 171.292c5.040 2.538 5.040 6.588 0 9.126l-61.372 30.532zM857.946 275.814l-254.018-126.47c-10.38-5.156-23.802-7.942-37.92-7.942-14.072 0-27.54 2.786-37.876 7.942l-254.016 126.47-61.418-30.574c-5.040-2.456-5.040-6.588 0-9.086l344.102-171.288c5.082-2.538 13.334-2.538 18.374 0l344.144 171.29c5.040 2.498 5.040 6.63 0 9.086l-61.372 30.572zM919.318 496.178l-169.878 84.52c-38.268-57.67-106.028-96.226-183.432-96.226-77.36 0-145.164 38.556-183.388 96.226l-169.922-84.52c-5.040-2.538-5.040-6.67 0-9.168l344.102-171.33c5.082-2.456 13.334-2.456 18.374 0l344.144 171.332c5.040 2.496 5.040 6.628 0 9.166zM566.008 609.594c-13.898 0-26.972-5.118-36.834-14.408-20.328-19.114-20.328-50.302 0-69.456 9.862-9.292 22.936-14.368 36.834-14.368 13.944 0 27.018 5.076 36.922 14.408 20.328 19.196 20.328 50.302-0.042 69.416-9.862 9.292-22.936 14.408-36.88 14.408zM605.23 622.036h-93.344v8.8c0 14.98 1.826 27.094 5.386 36.426 3.604 9.374 8.948 17.886 16.116 25.582 7.080 7.736 23.108 21.324 47.996 40.766 13.292 10.192 19.894 19.524 19.894 27.996 0 8.474-2.65 15.104-7.994 19.81-5.296 4.706-13.376 7.040-24.15 7.040-11.64 0-21.284-3.642-28.884-10.886-7.602-7.244-12.464-19.892-14.636-37.942l-95.3 11.092c3.302 33.030 16.028 59.594 38.224 79.772 22.152 20.096 56.208 30.166 102.076 30.166 35.704 0 64.458-7 86.438-21.038 29.798-18.992 44.696-44.286 44.696-75.924 0-13.138-3.822-25.744-11.51-37.942-7.73-12.238-23.456-27.136-47.174-44.694-16.592-12.362-27.016-22.226-31.36-29.716-4.344-7.492-6.474-17.274-6.474-29.308z" />
<glyph unicode="&#xe617;" d="M861.226 721.742c0-79.766-154.464-144.41-344.862-144.41-190.5 0-344.93 64.644-344.93 144.41 0 79.764 154.432 144.478 344.93 144.478 190.398 0 344.862-64.716 344.862-144.478zM171.884 528.292c4.788-77.96 157-140.596 344.48-140.596 187.414 0 339.662 62.634 344.376 140.596h0.484v128.942c-53.198-63.118-183.804-105.774-344.862-105.774-161.124 0-291.766 42.658-344.93 105.774v-128.942h0.452zM172.406 334.292c10.058-76.024 159.946-136.366 343.958-136.366 183.946 0 333.834 60.342 343.824 136.366h1.038v133.794c-52.85-63.464-183.458-106.33-344.862-106.33-161.47 0-292.078 42.866-344.93 106.4v-133.866h0.972zM171.504 153.192c0-0.21-0.070-0.348-0.070-0.486 0-79.766 154.432-144.408 344.93-144.408 190.396 0 344.862 64.642 344.862 144.408 0 0.138-0.066 0.276-0.066 0.486h0.066v125.334c-52.712-63.534-183.318-106.398-344.862-106.398-161.644 0-292.216 42.866-344.93 106.398v-125.334h0.070z" />
<glyph unicode="&#xe618;" d="M508.834 878.702c-232.12 0-420.262-190.57-420.262-425.634 0-235.026 188.142-425.556 420.262-425.556s420.262 190.532 420.262 425.556c0 235.064-188.142 425.634-420.262 425.634zM683.944 412.648h-341.89v62.704h341.888v-62.704z" />
<glyph unicode="&#xe619;" d="M213.67 380.884c0 167.116 128.246 303.036 285.924 303.036h186.678l-128.572 136.326c-13.786 14.67-13.786 38.446 0 53.056 13.352 14.264 36.766 14.264 50.006 0l189.032-200.398c6.728-7.074 10.558-16.468 10.558-26.558 0-9.972-3.83-19.366-10.558-26.556l-189.032-200.4c-13.24-14.15-36.654-14.15-50.006 0-13.786 14.67-13.786 38.502 0 53.116l128.574 136.266h-186.678c-118.616 0-215.126-102.17-215.126-227.886 0-125.712 96.51-227.942 215.126-227.942h101.218c16.742 0 30.31-14.44 30.31-32.182v-10.67c0-17.802-13.568-32.24-30.31-32.24h-101.218c-157.68 0-285.926 135.978-285.926 303.032v0z" />
<glyph unicode="&#xe61a;" d="M88.172 850h846.496v-73.39h-846.496v73.39zM88.172 556.75h846.496v-73.388h-846.496v73.388zM88.172 263.316h846.496v-73.208h-846.496v73.208zM329.992 703.344h604.676v-73.388h-604.676v73.388zM329.992 409.972h604.676v-73.204h-604.676v73.204zM329.992 116.66h604.676v-73.328h-604.676v73.328z" />
<glyph unicode="&#xe61b;" d="M511.21 868.824c-233.432 0-422.672-189.212-422.672-422.732 0-233.486 189.242-422.7 422.672-422.7s422.672 189.212 422.672 422.7c0 233.518-189.24 422.732-422.672 422.732v0zM511.21 122.732c-178.366 0.43-322.958 144.938-323.416 323.36 0.458 178.452 145.050 322.986 323.416 323.446 178.478-0.458 322.958-144.994 323.414-323.446-0.456-178.422-144.934-322.93-323.414-323.36v0zM464.16 258.28l188.094 187.812-188.094 187.868v-375.68z" />
<glyph unicode="&#xe61c;" d="M814.294 884h-739.424v-877.9h877.934v727.67l-138.51 150.23zM773.268 28.81h-518.862v387.234h518.862v-387.234zM933.436 25.434h-140.798v409.852h-557.6v-409.852h-140.802v839.23h711.65l127.548-138.506v-700.724zM324.742 324.908h376.788v-19.338h-376.788v19.338zM324.742 188.854h376.788v-19.304h-376.788v19.304zM235.038 519.034h557.598v275.42h-557.598v-275.42zM254.406 775.054h518.862v-236.748h-518.862v236.748z" />
<glyph unicode="&#xe61d;" d="M780.164 877.884h-54.482v-353.298h-434.96v353.298h-217.284v-869.884h869.788v706.76l-163.062 163.124zM834.516 62.386h-652.502v380.508h652.502v-380.508zM236.5 388.602h543.666v-54.384h-543.666v54.384zM236.5 279.832h543.666v-54.322h-543.666v54.322zM236.5 171.058h543.666v-54.286h-543.666v54.286zM562.618 823.402h108.84v-244.626h-108.84v244.626z" />
<glyph unicode="&#xe61e;" d="M958.778 106.404l-233.678 233.628c37.5 56.494 57.658 122.774 57.658 192.156 0 93.122-36.292 180.626-102.136 246.516-65.794 65.796-153.394 102.062-246.468 102.062h-0.046c-192.206 0-348.628-156.376-348.628-348.58 0-192.252 156.376-348.65 348.628-348.65 69.38 0 135.614 20.156 192.106 57.558l233.626-233.628c13.616-13.518 35.904-13.518 49.468 0l49.468 49.516c13.516 13.568 13.614 35.808 0.002 49.422zM178.672 532.188c0 140.798 114.636 255.384 255.434 255.384 68.218 0 132.366-26.55 180.624-74.808 48.256-48.256 74.808-112.358 74.808-180.576s-26.552-132.368-74.808-180.626c-48.258-48.256-112.406-74.806-180.624-74.806-140.848 0-255.434 114.586-255.434 255.432z" />
<glyph unicode="&#xe61f;" d="M90.998 865.848h837.674v-174.834h-837.674v174.834zM90.998 531.406h837.674v-174.902h-837.674v174.902zM90.998 196.83h837.674v-174.834h-837.674v174.834z" />
<glyph unicode="&#xe620;" d="M785.634 493.42c0 15.354-10.814 27.23-24.11 27.23h-72.456v100.776c42.746 42.334 96.564 107.99 96.564 126.142 0 15.39-10.814 27.23-24.11 27.23h-72.456v12.234c0 13.31-8.78 24.108-19.53 24.108h-15.586c-5.79 0-11.006 3.444-14.57 8.968-25.57 37.886-72.774 63.61-127.354 63.61s-101.846-25.724-127.354-63.61c-3.69-5.524-8.844-9.042-14.63-9.042h-15.586c-10.75 0-19.53-10.726-19.53-24.036v-12.23h-72.392c-13.358 0-24.172-11.84-24.172-27.23 0-18.154 53.816-83.808 96.566-126.142v-100.776h-72.392c-13.358 0-24.172-11.876-24.172-27.23 0-18.19 53.816-83.844 96.566-126.212v-100.778h-72.392c-13.358 0-24.172-11.768-24.172-27.198 0-18.154 53.816-83.806 96.566-126.21v-76.708c0-13.276 8.778-24.038 19.53-24.038h315.018c10.814 0 19.594 10.836 19.594 24.108v76.636c42.746 42.404 96.564 108.056 96.564 126.21 0 15.43-10.814 27.198-24.11 27.198h-72.456v100.778c42.744 42.368 96.562 108.022 96.562 126.212v0zM512.032 84.892c-44.466 0-80.534 40.61-80.534 90.768 0 50.156 36.068 90.77 80.534 90.77 44.402 0 80.408-40.614 80.408-90.77 0-50.158-36.006-90.768-80.408-90.768v0zM512.032 339.078c-44.466 0-80.534 40.648-80.534 90.768 0 50.156 36.068 90.804 80.534 90.804 44.402 0 80.408-40.648 80.408-90.804 0-50.12-36.006-90.768-80.408-90.768v0zM512.032 593.228c-44.466 0-80.534 40.684-80.534 90.804s36.068 90.768 80.534 90.768c44.402 0 80.408-40.648 80.408-90.768s-36.006-90.804-80.408-90.804v0z" />
<glyph unicode="&#xe621;" d="M641.11 520.128c0-68.5-64.082-136.75-128.050-136.75-64.084 0-128.41 68.248-128.41 136.75v363.87h-128.052v-409.474c0-136.682 85.588-227.506 213.7-227.506h85.528c128.052 0 213.576 90.824 213.576 227.506v409.474h-128.292v-363.87zM89.998 142.79h846.002v-140.79h-846.002v140.79z" />
<glyph unicode="&#xe622;" d="M804.648 748.862c-162.508 168.584-426.902 168.584-589.466 0-162.448-168.646-162.448-443.026 0-611.608 162.566-168.584 426.958-168.584 589.466 0 162.448 168.582 162.448 442.962 0 611.608v0zM759.048 184.454c-137.332-142.584-360.876-142.644-498.386-0.064-137.332 142.644-137.332 374.692 0 517.398 137.51 142.458 361.054 142.52 498.504 0 137.452-142.706 137.452-374.754-0.118-517.334v0zM354.532 560.068c0 27.974 21.732 50.586 48.746 50.586 26.836 0 48.568-22.614 48.568-50.586s-21.73-50.526-48.568-50.526c-27.014 0-48.746 22.552-48.746 50.526v0zM575.344 560.068c0 27.974 21.85 50.586 48.748 50.586 26.894 0 48.744-22.614 48.744-50.586s-21.85-50.526-48.744-50.526c-26.898 0-48.748 22.552-48.748 50.526v0zM690.41 353.036c-30.042-72.338-100.698-119.228-180.022-119.228-80.986 0-152.116 47.014-181.090 119.966-4.986 12.324 0.534 26.742 12.588 31.856 2.968 1.294 6.174 1.848 9.084 1.848 9.202 0 18.11-5.606 21.85-15.094 21.732-54.47 75.82-89.714 137.57-89.714 60.324 0 114.058 35.368 136.858 89.838 5.166 12.384 19.12 18.116 31.054 12.754 11.752-5.362 17.454-19.78 12.108-32.226v0z" />
<glyph unicode="&#xf05e;" d="M749.714 440.571q0 92-49.714 168.571l-430.857-430.286q78.286-50.857 169.714-50.857 63.429 0 120.857 24.857t99.143 66.571 66.286 99.714 24.571 121.429zM178.857 269.714l431.429 430.857q-77.143 52-171.429 52-84.571 0-156-41.714t-113.143-113.714-41.714-156.571q0-92.571 50.857-170.857zM877.714 440.571q0-89.714-34.857-171.429t-93.429-140.571-140-93.714-170.571-34.857-170.571 34.857-140 93.714-93.429 140.571-34.857 171.429 34.857 171.143 93.429 140.286 140 93.714 170.571 34.857 170.571-34.857 140-93.714 93.429-140.286 34.857-171.143z" />
</font>
</defs>
</svg>
